<svg id="Layer_1" data-name="Layer 1" xmlns="http://www.w3.org/2000/svg" viewBox="0 0 504 504"><defs><style>.cls-1{fill:#6db282;}.cls-2{fill:#3d654f;}.cls-3{fill:#fff;}</style></defs><title>52MillionLogo</title><path class="cls-1" d="M88.84,204.29q-2.39.36-4.92.57C85.61,204.72,87.25,204.52,88.84,204.29Z"/><path class="cls-1" d="M117.49,207.75V257.6a57.8,57.8,0,0,1-.57,7,22.41,22.41,0,0,1-.55,2.92,32,32,0,0,1-5.6,11.95l-.38.48c-.26.3-.53.6-.8.89a19.57,19.57,0,0,1-8.42,5.31l-.82.24-1.61.51a56.42,56.42,0,0,1-12.67,2.74c-2.73.3-5.7.47-8.93.5h-.73V213.54h.2c18.69,0,34-5.83,35.21-13.2,3.52,2.12,5.57,4.59,5.66,7.23A1.15,1.15,0,0,1,117.49,207.75Z"/><path class="cls-1" d="M76.61,176.85h-.2C57,176.9,41.32,183.22,41.32,191v.2a6.94,6.94,0,0,0,1.57,4,6.3,6.3,0,0,0,.48.57,7.7,7.7,0,0,0,.56.59,15.8,15.8,0,0,0,2.25,1.83,25.39,25.39,0,0,0,2.34,1.4c6.41,3.38,16.51,5.56,27.89,5.58h.2c1.8,0,3.55,0,5.27-.15q1-.06,2-.15c1.69-.14,3.33-.34,4.92-.57l1-.14c.61-.11,1.23-.21,1.84-.33a47.2,47.2,0,0,0,13.07-4.24l.67-.37c.43-.24.85-.49,1.24-.74h0l.57-.39c.49-.34,1-.69,1.37-1,.27-.24.53-.48.78-.73a7.65,7.65,0,0,0,.68-.73l.32-.39a8.58,8.58,0,0,0,1.13-1.94c0-.15.11-.3.15-.45a1.05,1.05,0,0,0,0-.19,1.78,1.78,0,0,0,.1-.38,5.69,5.69,0,0,0,.13-1,1.41,1.41,0,0,0,0-.2C111.91,183.19,96.1,176.85,76.61,176.85Zm7.78,13.8h0l-.28.22a2,2,0,0,1-1.06.33H69.29A1.88,1.88,0,0,1,68,188a1.86,1.86,0,0,1,1.33-.55H83.05a1.89,1.89,0,0,1,1.89,1.88A1.91,1.91,0,0,1,84.39,190.65Z"/><path class="cls-2" d="M111.9,191.21v8.37a4.78,4.78,0,0,1-.08.76c-1.23,7.37-16.52,13.2-35.21,13.2h-.2v18.3a3.71,3.71,0,0,0-1.27-1,8.23,8.23,0,0,0-1.43-.78A8.14,8.14,0,0,0,65,231.89l-.29.34a8,8,0,0,0-1.58,5.67A7.78,7.78,0,0,0,65,242.35l11.44,10.1V290.1h-.2a80.87,80.87,0,0,1-8.68-.45h-.1A67.4,67.4,0,0,1,60,288.43H59.9c-23.69-3.81-23.79-21.17-23.78-23.56v-16.1c4.06,5.23,13.33,13.81,24.66,16.35a1.37,1.37,0,0,0,.28,0,1.27,1.27,0,0,0,.28-2.5c-14-3.14-24.4-16.24-25.22-18.26h0l0-36.61v-.19c.1-2.54,2-4.93,5.31-7a6.41,6.41,0,0,1-.13-1v-8.37h0a6.94,6.94,0,0,0,1.57,4,6.3,6.3,0,0,0,.48.57,7.7,7.7,0,0,0,.56.59,15.8,15.8,0,0,0,2.25,1.83,25.39,25.39,0,0,0,2.34,1.4c6.41,3.38,16.51,5.56,27.89,5.58h.2c1.8,0,3.55,0,5.27-.15q1-.06,2-.15,2.53-.21,4.92-.57l1-.14c.61-.11,1.23-.21,1.84-.33a47.2,47.2,0,0,0,13.07-4.24l.67-.37c.43-.24.85-.49,1.24-.74h0l.57-.39c.49-.34,1-.69,1.37-1,.27-.24.53-.48.78-.73a7.65,7.65,0,0,0,.68-.73l.32-.39a8.58,8.58,0,0,0,1.13-1.94c0-.15.11-.3.15-.45a1.05,1.05,0,0,0,0-.19,1.78,1.78,0,0,0,.1-.38,5.69,5.69,0,0,0,.13-1Z"/><path class="cls-2" d="M62.3,264.14a1.27,1.27,0,0,1-1.24,1,1.37,1.37,0,0,1-.28,0c-11.33-2.54-20.6-11.12-24.66-16.35v-4.39c.82,2,11.19,15.12,25.22,18.26A1.27,1.27,0,0,1,62.3,264.14Z"/><path class="cls-2" d="M76.41,231.84v20.61L65,242.35a7.78,7.78,0,0,1-1.88-4.45,8,8,0,0,1,1.58-5.67l.29-.34a8.14,8.14,0,0,1,8.75-1.83,8.23,8.23,0,0,1,1.43.78A3.71,3.71,0,0,1,76.41,231.84Z"/><path class="cls-1" d="M61.34,262.63c-14-3.14-24.4-16.24-25.22-18.26v4.39c4.06,5.23,13.33,13.81,24.66,16.35a1.37,1.37,0,0,0,.28,0,1.27,1.27,0,0,0,.28-2.5Z"/><path class="cls-2" d="M117.49,244.39c-.8,2-11.14,15.1-25.19,18.24a1.27,1.27,0,0,0,.28,2.5l.28,0c11.31-2.54,20.56-11.1,24.63-16.33Z"/><path class="cls-3" d="M87.58,242.89c-2.26,1.73-4.37,3.71-6.54,5.56-1.58,1.33-3.07,2.65-4.63,4L65,242.35a7.78,7.78,0,0,1-1.88-4.45,8,8,0,0,1,1.58-5.67l.29-.34a8.14,8.14,0,0,1,8.75-1.83,8.23,8.23,0,0,1,1.43.78,3.71,3.71,0,0,1,1.27,1A7.85,7.85,0,0,1,81,229.61a8.54,8.54,0,0,1,6.68,1.72C91,234.08,91,240.24,87.58,242.89Z"/><path class="cls-1" d="M143.81,232.58h-6.54v-5.29h19.11v5.29h-6.54v16.5h-6Z"/><path class="cls-1" d="M158.68,226.36h5.95v8.18a8.31,8.31,0,0,1,2-1.86,5.2,5.2,0,0,1,3-.81,5.48,5.48,0,0,1,4.24,1.65,6.45,6.45,0,0,1,1.52,4.54v11h-6V240a3.09,3.09,0,0,0-.64-2.12,2.16,2.16,0,0,0-1.69-.71,2.34,2.34,0,0,0-1.77.71,3,3,0,0,0-.69,2.12v9.12h-5.95Z"/><path class="cls-1" d="M186.76,249.48a10.12,10.12,0,0,1-3.64-.63,8.66,8.66,0,0,1-2.85-1.78,7.94,7.94,0,0,1-1.87-2.75,9.24,9.24,0,0,1-.67-3.58v-.07a9.45,9.45,0,0,1,.62-3.43,8.28,8.28,0,0,1,4.45-4.69,8.37,8.37,0,0,1,3.43-.68,9,9,0,0,1,3.78.74,7.55,7.55,0,0,1,2.65,2,8.49,8.49,0,0,1,1.55,2.93,12,12,0,0,1,.52,3.53v.59c0,.21,0,.42,0,.62H183.43a3.49,3.49,0,0,0,1.29,2.09,3.89,3.89,0,0,0,2.35.68,4.61,4.61,0,0,0,1.94-.4,6.18,6.18,0,0,0,1.79-1.31l3.27,2.71a9.06,9.06,0,0,1-3,2.49A9.24,9.24,0,0,1,186.76,249.48Zm2.43-10.21a3.77,3.77,0,0,0-.94-2.22,2.62,2.62,0,0,0-2-.83,2.49,2.49,0,0,0-1.93.83,4.39,4.39,0,0,0-1,2.22Z"/><path class="cls-1" d="M213.71,249.51a12.38,12.38,0,0,1-5-.93,13.68,13.68,0,0,1-3.83-2.52l3.46-4.05a13.08,13.08,0,0,0,2.61,1.75,6.12,6.12,0,0,0,2.68.62,3.65,3.65,0,0,0,2.35-.69,2.24,2.24,0,0,0,.85-1.86v-.07a2.2,2.2,0,0,0-.88-1.85,3.8,3.8,0,0,0-2.32-.67,5.52,5.52,0,0,0-1.85.31,9.86,9.86,0,0,0-1.64.78l-3.58-2,.63-11.05h14.56v5h-9.8l-.19,3.3a10.07,10.07,0,0,1,1.57-.56,7.35,7.35,0,0,1,1.92-.22,9.42,9.42,0,0,1,2.81.42,7,7,0,0,1,2.39,1.26,6.27,6.27,0,0,1,1.65,2.15,7.17,7.17,0,0,1,.62,3.08v.06A7.7,7.7,0,0,1,222,245a7.08,7.08,0,0,1-1.85,2.43,8.51,8.51,0,0,1-2.84,1.53A12,12,0,0,1,213.71,249.51Z"/><path class="cls-1" d="M224.92,244.53l8.15-6.22a11.57,11.57,0,0,0,2.17-2.05,3.16,3.16,0,0,0,.63-1.87,2,2,0,0,0-.67-1.62,2.51,2.51,0,0,0-1.75-.59,3.57,3.57,0,0,0-2.07.67,12.11,12.11,0,0,0-2.26,2.13L225,231.59a18.56,18.56,0,0,1,1.78-2,10,10,0,0,1,1.94-1.46,9.34,9.34,0,0,1,2.3-.9,11.85,11.85,0,0,1,2.85-.31,10,10,0,0,1,3.26.51,7.77,7.77,0,0,1,2.53,1.42,6.16,6.16,0,0,1,1.65,2.19,6.6,6.6,0,0,1,.59,2.82v.06a8,8,0,0,1-.32,2.34,6.78,6.78,0,0,1-1,1.91,10.93,10.93,0,0,1-1.59,1.7c-.62.54-1.34,1.1-2.15,1.68l-3.73,2.61h9v4.92H224.92Z"/><path class="cls-1" d="M253.86,227.29h6.38l5.2,8.44,5.2-8.44H277v21.79h-6V236.57l-5.55,8.52h-.13l-5.52-8.46v12.45h-5.95Z"/><path class="cls-1" d="M280.54,226.36h6.19v4.35h-6.19Zm.12,5.88h5.95v16.84h-5.95Z"/><path class="cls-1" d="M290,226.36H296v22.72H290Z"/><path class="cls-1" d="M299.34,226.36h5.94v22.72h-5.94Z"/><path class="cls-1" d="M308.55,226.36h6.19v4.35h-6.19Zm.12,5.88h5.95v16.84h-5.95Z"/><path class="cls-1" d="M326.48,249.48a10,10,0,0,1-3.72-.68,9.31,9.31,0,0,1-2.94-1.88,8.53,8.53,0,0,1-2.62-6.18v-.07a8.51,8.51,0,0,1,.7-3.4,8.61,8.61,0,0,1,2-2.8,9.07,9.07,0,0,1,3-1.9,10.26,10.26,0,0,1,7.45,0,9.31,9.31,0,0,1,2.94,1.88,8.44,8.44,0,0,1,2.62,6.16v.06a8.55,8.55,0,0,1-2.65,6.21,9.17,9.17,0,0,1-3,1.9A9.68,9.68,0,0,1,326.48,249.48Zm.06-5a3.59,3.59,0,0,0,1.46-.29,3.37,3.37,0,0,0,1.11-.8,3.82,3.82,0,0,0,.7-1.19,4.29,4.29,0,0,0,.25-1.42v-.07a3.93,3.93,0,0,0-.27-1.45,3.42,3.42,0,0,0-.74-1.18,3.73,3.73,0,0,0-1.14-.82,3.25,3.25,0,0,0-1.43-.31,3.59,3.59,0,0,0-1.46.29,3.37,3.37,0,0,0-1.11.8,3.82,3.82,0,0,0-.7,1.19,4,4,0,0,0-.25,1.42v.06a4,4,0,0,0,.27,1.46,3.52,3.52,0,0,0,.74,1.18,3.61,3.61,0,0,0,1.14.82A3.22,3.22,0,0,0,326.54,244.44Z"/><path class="cls-1" d="M338.31,232.24h5.94v2.37a9.51,9.51,0,0,1,.89-1,5.92,5.92,0,0,1,1.11-.87,6.38,6.38,0,0,1,1.35-.61,5.27,5.27,0,0,1,1.63-.23,5.46,5.46,0,0,1,4.24,1.65,6.45,6.45,0,0,1,1.52,4.54v11H349V240a3.09,3.09,0,0,0-.64-2.12,2.16,2.16,0,0,0-1.69-.71,2.34,2.34,0,0,0-1.77.71,3,3,0,0,0-.69,2.12v9.12h-5.94Z"/><path class="cls-1" d="M367,227.29h9.34a12.91,12.91,0,0,1,3.74.51,8.2,8.2,0,0,1,2.86,1.5,6.58,6.58,0,0,1,1.82,2.41,8,8,0,0,1,.64,3.24V235a7.83,7.83,0,0,1-.7,3.39,6.92,6.92,0,0,1-1.95,2.46,8.48,8.48,0,0,1-3,1.5,13.55,13.55,0,0,1-3.75.49h-3v6.23h-6Zm8.9,10.83a3.85,3.85,0,0,0,2.54-.76,2.6,2.6,0,0,0,.92-2.09v-.06a2.58,2.58,0,0,0-.92-2.14,4,4,0,0,0-2.57-.74H373v5.79Z"/><path class="cls-1" d="M387.61,232.24h5.94v3.39a7,7,0,0,1,2-2.74,4.8,4.8,0,0,1,3.36-.93v6.22h-.49a4.6,4.6,0,0,0-3.58,1.37,6.27,6.27,0,0,0-1.25,4.3v5.23h-5.94Z"/><path class="cls-1" d="M409.52,249.48a10,10,0,0,1-3.72-.68,9.31,9.31,0,0,1-2.94-1.88,8.57,8.57,0,0,1-1.93-2.79,8.42,8.42,0,0,1-.69-3.39v-.07a8.51,8.51,0,0,1,.7-3.4,8.61,8.61,0,0,1,1.95-2.8,9.17,9.17,0,0,1,3-1.9,10.26,10.26,0,0,1,7.45,0,9.31,9.31,0,0,1,2.94,1.88,8.24,8.24,0,0,1,1.93,2.77,8.42,8.42,0,0,1,.69,3.39v.06a8.55,8.55,0,0,1-2.65,6.21,9.07,9.07,0,0,1-3,1.9A9.68,9.68,0,0,1,409.52,249.48Zm.06-5a3.59,3.59,0,0,0,1.46-.29,3.37,3.37,0,0,0,1.11-.8,3.82,3.82,0,0,0,.7-1.19,4,4,0,0,0,.25-1.42v-.07a3.93,3.93,0,0,0-.27-1.45,3.42,3.42,0,0,0-.74-1.18,3.61,3.61,0,0,0-1.14-.82,3.22,3.22,0,0,0-1.43-.31,3.59,3.59,0,0,0-1.46.29,3.37,3.37,0,0,0-1.11.8,3.82,3.82,0,0,0-.7,1.19,4,4,0,0,0-.25,1.42v.06a4,4,0,0,0,.27,1.46,3.52,3.52,0,0,0,.74,1.18,3.73,3.73,0,0,0,1.14.82A3.25,3.25,0,0,0,409.58,244.44Z"/><path class="cls-1" d="M421.38,254.15a8.77,8.77,0,0,1-1.31-.08l-1.12-.14V250a2.38,2.38,0,0,0,.39,0h.39a1.8,1.8,0,0,0,1.31-.43,2.14,2.14,0,0,0,.43-1.53V232.24h5.95v16.09A8,8,0,0,1,427,251a4.27,4.27,0,0,1-1.17,1.8,4.67,4.67,0,0,1-1.9,1A9.5,9.5,0,0,1,421.38,254.15Zm0-27.79h6.19v4.35h-6.19Z"/><path class="cls-1" d="M439.09,249.48a10.12,10.12,0,0,1-3.64-.63,8.66,8.66,0,0,1-2.85-1.78,7.94,7.94,0,0,1-1.87-2.75,9.24,9.24,0,0,1-.67-3.58v-.07a9.45,9.45,0,0,1,.62-3.43,8.28,8.28,0,0,1,4.45-4.69,8.37,8.37,0,0,1,3.43-.68,9,9,0,0,1,3.78.74,7.55,7.55,0,0,1,2.65,2,8.49,8.49,0,0,1,1.55,2.93,11.64,11.64,0,0,1,.52,3.53v.59c0,.21,0,.42,0,.62H435.76a3.49,3.49,0,0,0,1.29,2.09,3.89,3.89,0,0,0,2.35.68,4.61,4.61,0,0,0,1.94-.4,6.18,6.18,0,0,0,1.79-1.31l3.27,2.71a9.06,9.06,0,0,1-3,2.49A9.24,9.24,0,0,1,439.09,249.48Zm2.43-10.21a3.77,3.77,0,0,0-.94-2.22,2.62,2.62,0,0,0-2-.83,2.49,2.49,0,0,0-1.93.83,4.39,4.39,0,0,0-1,2.22Z"/><path class="cls-1" d="M457.7,249.48a8.75,8.75,0,0,1-3.52-.7,8.59,8.59,0,0,1-2.78-1.88,8.82,8.82,0,0,1-2.51-6.16v-.07a8.82,8.82,0,0,1,2.52-6.17,8.58,8.58,0,0,1,2.85-1.9,9.29,9.29,0,0,1,3.66-.7,8.55,8.55,0,0,1,4.36,1,8.43,8.43,0,0,1,2.83,2.74l-4,3a5.48,5.48,0,0,0-1.33-1.31,3.27,3.27,0,0,0-1.81-.46,3,3,0,0,0-1.32.29,3.22,3.22,0,0,0-1.05.81,4,4,0,0,0-.93,2.63v.06a4.35,4.35,0,0,0,.25,1.51,3.9,3.9,0,0,0,.68,1.22,3.41,3.41,0,0,0,4.22.64,7.28,7.28,0,0,0,1.45-1.28l3.95,2.86a9.3,9.3,0,0,1-2.95,2.81A8.86,8.86,0,0,1,457.7,249.48Z"/><path class="cls-1" d="M474,249.42a6.26,6.26,0,0,1-4.19-1.27c-1-.86-1.51-2.29-1.51-4.3V237h-2v-4.76h2V228h5.95v4.26h3.92V237h-3.92v5.7a1.73,1.73,0,0,0,.4,1.29,1.7,1.7,0,0,0,1.22.39,4,4,0,0,0,1.15-.16,7.12,7.12,0,0,0,1.09-.4v4.64a8.29,8.29,0,0,1-1.84.7A9.38,9.38,0,0,1,474,249.42Z"/></svg>